<?xml version="1.0" encoding="UTF-8"?>
<svg xmlns="http://www.w3.org/2000/svg" xmlns:xlink="http://www.w3.org/1999/xlink" width="11pt" height="11pt" viewBox="0 0 11 11" version="1.1">
<g id="surface5050710">
<path style=" stroke:none;fill-rule:nonzero;fill:rgb(45.882353%,45.882353%,45.882353%);fill-opacity:1;" d="M 8.25 0 L 0.917969 0 L 0.917969 9.167969 L 2.046875 11 L 9.625 11 L 9.625 2.621094 Z M 4.582031 2.75 C 5.089844 2.75 5.5 3.160156 5.5 3.667969 C 5.5 4.171875 5.089844 4.582031 4.582031 4.582031 C 4.078125 4.582031 3.667969 4.171875 3.667969 3.667969 C 3.667969 3.160156 4.078125 2.75 4.582031 2.75 Z M 3.949219 5.050781 C 4.136719 5.152344 4.355469 5.210938 4.582031 5.210938 C 4.8125 5.210938 5.027344 5.152344 5.214844 5.050781 C 5.625 5.160156 5.941406 5.414062 6.089844 5.957031 L 3.074219 5.957031 C 3.222656 5.414062 3.542969 5.160156 3.949219 5.050781 Z M 8.707031 10.082031 L 2.535156 10.082031 L 1.980469 9.167969 L 8.25 9.167969 L 8.25 1.894531 L 8.707031 2.878906 Z M 8.707031 10.082031 "/>
</g>
</svg>
